# xmcd
#
# Track frame offsets:
#	150
#	22928
#	50809
#	71099
#	94056
#	114067
#	132401
#	153225
#	170678
#	198503
#	230842
#	257971
#	276021
#
# Disc length: 3896 seconds
#
# Revision: 0
# Processed by: cddbd v1.5.2PL0 Copyright (c) Steve Scherf et al.
# Submitted via: AudioConverter v7.0 Copyright (c) D.R. Software
#
DISCID=b90f360d
DTITLE=BARRY CUDA - SEAFOOD AND EAT IT
DYEAR=2006
DGENRE=Blues
TTITLE0=LAST NIGHT
TTITLE1=BAD BAD WHISKEY
TTITLE2=VICKSBURG BLUES
TTITLE3=I CANT BE SATISFIED
TTITLE4=MY BABE
TTITLE5=WORRIED LIFE BLUES
TTITLE6=TOO LATE
TTITLE7=DONT YOU LIE TO ME
TTITLE8=TIPITINA
TTITLE9=GOING DOWN SLOW
TTITLE10=BIG CHIEF
TTITLE11=MEAN MISTREATER
TTITLE12=MEMPHIS
EXTD=
EXTT0=LAST NIGHT
EXTT1=BAD BAD WHISKEY
EXTT2=VICKSBURG BLUES
EXTT3=I CANT BE SATISFIED
EXTT4=MY BABE
EXTT5=WORRIED LIFE BLUES
EXTT6=TOO LATE
EXTT7=DONT YOU LIE TO ME
EXTT8=TIPITINA
EXTT9=GOING DOWN SLOW
EXTT10=BIG CHIEF
EXTT11=MEAN MISTREATER
EXTT12=MEMPHIS
PLAYORDER=
